<svg width="253" height="75" viewBox="0 0 253 75" fill="none" xmlns="http://www.w3.org/2000/svg">
<path d="M92.6463 11.09V14.15H106.626V11.09H92.6463ZM91.3263 17.9V21.05H110.376V17.9H91.3263ZM99.3663 15.59V24.71C99.3663 25.13 99.2163 25.22 98.7063 25.22C98.1663 25.22 96.2463 25.22 94.6563 25.19C95.1363 26.15 95.6163 27.62 95.7663 28.64C98.1963 28.64 99.9963 28.61 101.286 28.07C102.606 27.56 102.966 26.6 102.966 24.83V15.59H99.3663ZM105.396 11.09V11.75C104.346 13.1 102.096 14.93 99.9063 15.95C100.416 16.43 101.286 17.36 101.706 17.96C104.706 16.7 107.466 14.66 109.416 12.59L107.136 10.94L106.326 11.09H105.396ZM106.926 0.499999C103.026 1.55 96.7263 2.27 91.1463 2.6C91.5063 3.38 91.9563 4.73 92.0763 5.57C97.7463 5.33 104.466 4.67 109.296 3.44L106.926 0.499999ZM91.9863 6.8C92.8563 8.24 93.7263 10.16 94.0263 11.42L97.2063 10.13C96.8163 8.87 95.9463 7.07 95.0163 5.69L91.9863 6.8ZM97.6263 5.9C98.3163 7.37 98.9763 9.35 99.1563 10.64L102.366 9.5C102.126 8.24 101.436 6.32 100.686 4.91L97.6263 5.9ZM105.696 4.76C105.126 6.44 104.046 8.72 103.116 10.25L105.906 11.27C106.956 9.92 108.276 7.82 109.506 5.87L105.696 4.76ZM84.0063 3.32C85.8963 4.16 88.2663 5.54 89.3763 6.59L91.4463 3.65C90.2463 2.63 87.8163 1.4 85.9563 0.679999L84.0063 3.32ZM82.2663 11.48C84.1863 12.29 86.5863 13.61 87.7263 14.63L89.7963 11.63C88.5663 10.64 86.0763 9.44 84.2163 8.78L82.2663 11.48ZM82.9263 26.12L86.1063 28.31C87.7563 25.34 89.4663 21.86 90.9063 18.62L88.1163 16.43C86.4963 19.97 84.3963 23.78 82.9263 26.12ZM112.536 7.76V11.24H140.436V7.76H112.536ZM118.746 23.33V26.78H139.356V23.33H118.746ZM126.156 15.98V19.34H133.866V15.98H126.156ZM116.856 1.43V28.7H120.576V1.43H116.856ZM124.656 0.799999V20.57H128.286V0.799999H124.656ZM132.306 1.1V20.51H135.936V1.1H132.306ZM158.436 17.15C157.896 19.61 156.786 22.97 155.826 25.1L159.006 25.94C160.026 23.93 161.226 20.81 162.246 17.99L158.436 17.15ZM163.176 20.93C164.946 23.36 166.896 26.75 167.676 28.91L170.706 27.26C169.836 25.1 167.886 21.92 165.996 19.52L163.176 20.93ZM161.556 4.16C163.266 6.62 166.266 9.89 168.936 11.81C169.506 10.73 170.376 9.44 171.096 8.57C168.186 6.89 165.186 3.68 163.086 0.739998H159.756C158.286 3.41 155.196 7.04 152.136 9.05C152.826 9.83 153.666 11.18 154.116 12.11C157.116 9.95 159.906 6.68 161.556 4.16ZM156.336 9.77V12.89H167.226V9.77H156.336ZM154.356 15.2V18.32H170.046V15.2H154.356ZM152.976 24.83L153.546 28.07C157.236 27.74 162.306 27.29 167.076 26.81L167.016 23.81C161.976 24.2 156.546 24.62 152.976 24.83ZM146.856 0.559999C146.166 2.66 144.876 5.54 143.796 7.31L146.196 8.36C147.366 6.68 148.746 4.01 149.976 1.73L146.856 0.559999ZM150.306 4.1C148.746 7.34 145.986 11.75 143.766 14.48L145.836 15.65C148.116 13.04 151.056 8.87 153.216 5.42L150.306 4.1ZM142.236 7.67C143.766 9.11 145.596 11.21 146.316 12.65L148.176 9.86C147.396 8.48 145.536 6.59 143.946 5.21L142.236 7.67ZM149.406 11.27C150.546 13.34 151.566 16.07 151.896 17.81L154.446 16.67C154.086 14.93 152.946 12.29 151.776 10.28L149.406 11.27ZM142.206 13.76L142.506 16.91C145.416 16.7 149.256 16.46 152.946 16.19L152.976 13.34C149.016 13.52 144.966 13.67 142.206 13.76ZM150.066 18.74C150.726 20.51 151.506 22.82 151.806 24.32L154.446 23.39C154.116 21.89 153.336 19.64 152.586 17.93L150.066 18.74ZM143.496 18.17C143.256 20.72 142.776 23.39 141.906 25.16C142.656 25.46 144.006 26.09 144.636 26.48C145.506 24.56 146.166 21.56 146.466 18.68L143.496 18.17ZM146.856 15.35V28.73H150.006V15.35H146.856ZM103.069 42.3594L106.215 34.2031H109.054L104.668 44.5215C104.516 44.873 104.34 45.21 104.141 45.5322C103.947 45.8486 103.716 46.1328 103.446 46.3848C103.177 46.6309 102.855 46.8271 102.48 46.9736C102.105 47.1143 101.656 47.1846 101.135 47.1846C101.006 47.1846 100.848 47.1816 100.66 47.1758C100.473 47.1699 100.323 47.1611 100.212 47.1494L100.195 45.0928C100.265 45.1104 100.376 45.1221 100.529 45.1279C100.681 45.1279 100.792 45.1279 100.863 45.1279C101.208 45.1279 101.481 45.0781 101.68 44.9785C101.879 44.8789 102.037 44.7383 102.154 44.5566C102.278 44.3691 102.386 44.1494 102.48 43.8975L103.069 42.3594ZM100.986 34.2031L103.904 40.54L104.721 43.4492L102.761 43.4844L98.1555 34.2031H100.986ZM112.192 37.4902V47H109.66V37.4902H112.192ZM118.37 37.4902L114.275 43.4404H111.743L111.436 41.1025H113.114L115.162 37.4902H118.37ZM115.277 47L112.939 42.9834L115.145 41.7617L118.669 47H115.277ZM122.141 43.4668L125.331 37.4902H127.863V47H125.331V41.0146L122.141 47H119.61V37.4902H122.141V43.4668ZM134.191 47.1758C133.452 47.1758 132.79 47.0586 132.204 46.8242C131.618 46.584 131.12 46.2529 130.71 45.8311C130.306 45.4092 129.995 44.9199 129.779 44.3633C129.562 43.8008 129.453 43.2031 129.453 42.5703V42.2188C129.453 41.498 129.556 40.8389 129.761 40.2412C129.966 39.6436 130.259 39.125 130.64 38.6855C131.027 38.2461 131.495 37.9092 132.046 37.6748C132.597 37.4346 133.218 37.3145 133.909 37.3145C134.583 37.3145 135.181 37.4258 135.702 37.6484C136.224 37.8711 136.66 38.1875 137.012 38.5977C137.369 39.0078 137.639 39.5 137.821 40.0742C138.002 40.6426 138.093 41.2754 138.093 41.9727V43.0273H130.534V41.3398H135.606V41.1465C135.606 40.7949 135.541 40.4814 135.412 40.2061C135.289 39.9248 135.102 39.7021 134.85 39.5381C134.598 39.374 134.276 39.292 133.883 39.292C133.549 39.292 133.262 39.3652 133.022 39.5117C132.781 39.6582 132.585 39.8633 132.433 40.127C132.286 40.3906 132.175 40.7012 132.099 41.0586C132.029 41.4102 131.993 41.7969 131.993 42.2188V42.5703C131.993 42.9512 132.046 43.3027 132.152 43.625C132.263 43.9473 132.418 44.2256 132.617 44.46C132.822 44.6943 133.069 44.876 133.356 45.0049C133.649 45.1338 133.98 45.1982 134.349 45.1982C134.806 45.1982 135.231 45.1104 135.623 44.9346C136.022 44.7529 136.364 44.4805 136.652 44.1172L137.882 45.4531C137.683 45.7402 137.41 46.0156 137.065 46.2793C136.725 46.543 136.315 46.7598 135.834 46.9297C135.354 47.0938 134.806 47.1758 134.191 47.1758ZM130.236 34.9766C130.236 34.6719 130.35 34.4141 130.578 34.2031C130.813 33.9863 131.1 33.8779 131.44 33.8779C131.791 33.8779 132.081 33.9863 132.31 34.2031C132.538 34.4141 132.653 34.6719 132.653 34.9766C132.653 35.2812 132.538 35.5391 132.31 35.75C132.081 35.9609 131.791 36.0664 131.44 36.0664C131.1 36.0664 130.813 35.9609 130.578 35.75C130.35 35.5391 130.236 35.2812 130.236 34.9766ZM134.551 34.9854C134.551 34.6748 134.665 34.4141 134.894 34.2031C135.122 33.9922 135.409 33.8867 135.755 33.8867C136.101 33.8867 136.388 33.9922 136.616 34.2031C136.851 34.4141 136.968 34.6748 136.968 34.9854C136.968 35.29 136.851 35.5479 136.616 35.7588C136.388 35.9639 136.101 36.0664 135.755 36.0664C135.409 36.0664 135.122 35.9639 134.894 35.7588C134.665 35.5479 134.551 35.29 134.551 34.9854ZM144.527 40.5137V42.5H139.561V40.5137H144.527ZM150.081 39.292C149.782 39.292 149.519 39.3535 149.29 39.4766C149.068 39.5938 148.895 39.7607 148.772 39.9775C148.649 40.1943 148.587 40.4521 148.587 40.751H146.205C146.205 40.0889 146.378 39.5 146.724 38.9844C147.07 38.4629 147.535 38.0557 148.121 37.7627C148.713 37.4639 149.366 37.3145 150.081 37.3145C150.808 37.3145 151.444 37.4375 151.988 37.6836C152.539 37.9297 152.999 38.2725 153.368 38.7119C153.743 39.1455 154.025 39.6553 154.212 40.2412C154.4 40.8213 154.493 41.4482 154.493 42.1221V42.377C154.493 43.0449 154.4 43.6719 154.212 44.2578C154.025 44.8379 153.743 45.3477 153.368 45.7871C152.999 46.2207 152.542 46.5605 151.997 46.8066C151.452 47.0527 150.822 47.1758 150.108 47.1758C149.34 47.1758 148.66 47.0264 148.069 46.7275C147.483 46.4287 147.026 46.0039 146.697 45.4531C146.369 44.8965 146.205 44.2402 146.205 43.4844H148.587C148.587 43.8066 148.646 44.0967 148.763 44.3545C148.886 44.6123 149.059 44.8174 149.281 44.9697C149.504 45.1221 149.779 45.1982 150.108 45.1982C150.459 45.1982 150.752 45.1221 150.987 44.9697C151.227 44.8115 151.417 44.6006 151.558 44.3369C151.698 44.0732 151.798 43.7715 151.857 43.4316C151.921 43.0918 151.953 42.7402 151.953 42.377V42.1221C151.953 41.7471 151.921 41.3926 151.857 41.0586C151.798 40.7188 151.698 40.417 151.558 40.1533C151.417 39.8838 151.227 39.6729 150.987 39.5205C150.752 39.3682 150.45 39.292 150.081 39.292ZM152.771 41.4453V42.9658H149.352V41.4453H152.771ZM0.499222 64.8242V64.6191C0.499222 63.8444 0.609899 63.1315 0.831253 62.4805C1.05261 61.8229 1.37487 61.2533 1.79805 60.7715C2.22123 60.2897 2.74206 59.9154 3.36055 59.6484C3.97904 59.375 4.68867 59.2383 5.48946 59.2383C6.29024 59.2383 7.00313 59.375 7.62813 59.6484C8.25313 59.9154 8.77722 60.2897 9.20039 60.7715C9.63008 61.2533 9.9556 61.8229 10.177 62.4805C10.3983 63.1315 10.509 63.8444 10.509 64.6191V64.8242C10.509 65.5924 10.3983 66.3053 10.177 66.9629C9.9556 67.6139 9.63008 68.1836 9.20039 68.6719C8.77722 69.1536 8.25638 69.528 7.63789 69.7949C7.0194 70.0618 6.30977 70.1953 5.50899 70.1953C4.70821 70.1953 3.99532 70.0618 3.37032 69.7949C2.75183 69.528 2.22774 69.1536 1.79805 68.6719C1.37487 68.1836 1.05261 67.6139 0.831253 66.9629C0.609899 66.3053 0.499222 65.5924 0.499222 64.8242ZM3.31172 64.6191V64.8242C3.31172 65.2669 3.35078 65.6803 3.42891 66.0645C3.50703 66.4486 3.63073 66.7871 3.8 67.0801C3.97578 67.3665 4.20365 67.5911 4.4836 67.7539C4.76354 67.9167 5.10534 67.998 5.50899 67.998C5.89961 67.998 6.2349 67.9167 6.51485 67.7539C6.79479 67.5911 7.0194 67.3665 7.18867 67.0801C7.35795 66.7871 7.48164 66.4486 7.55977 66.0645C7.6444 65.6803 7.68672 65.2669 7.68672 64.8242V64.6191C7.68672 64.1895 7.6444 63.7858 7.55977 63.4082C7.48164 63.0241 7.35469 62.6855 7.17891 62.3926C7.00964 62.0931 6.78503 61.8587 6.50508 61.6895C6.22513 61.5202 5.88659 61.4355 5.48946 61.4355C5.09232 61.4355 4.75378 61.5202 4.47383 61.6895C4.20039 61.8587 3.97578 62.0931 3.8 62.3926C3.63073 62.6855 3.50703 63.0241 3.42891 63.4082C3.35078 63.7858 3.31172 64.1895 3.31172 64.6191ZM18.7121 54.7852H20.9875C20.9875 55.3125 20.9224 55.765 20.7922 56.1426C20.662 56.5137 20.4536 56.8327 20.1672 57.0996C19.8807 57.36 19.4966 57.5814 19.0148 57.7637C18.5331 57.946 17.9374 58.1022 17.2277 58.2324C16.6809 58.3431 16.2056 58.5254 15.802 58.7793C15.4048 59.0332 15.076 59.3815 14.8156 59.8242C14.5617 60.2604 14.3794 60.8138 14.2688 61.4844C14.1581 62.1484 14.119 62.9492 14.1516 63.8867V64.3555L11.9641 64.6582V64.1895C11.9706 62.9134 12.0845 61.8034 12.3059 60.8594C12.5337 59.9154 12.856 59.1211 13.2727 58.4766C13.6893 57.8255 14.1906 57.3079 14.7766 56.9238C15.3625 56.5332 16.0135 56.2598 16.7297 56.1035C17.2115 55.9993 17.5956 55.8984 17.882 55.8008C18.175 55.6966 18.3866 55.5664 18.5168 55.4102C18.647 55.2539 18.7121 55.0456 18.7121 54.7852ZM17.4816 60.0293C18.1978 60.0293 18.8326 60.153 19.3859 60.4004C19.9393 60.6413 20.4048 60.9831 20.7824 61.4258C21.16 61.8685 21.4465 62.3893 21.6418 62.9883C21.8371 63.5872 21.9348 64.2415 21.9348 64.9512V65.1562C21.9348 65.8789 21.8241 66.5495 21.6027 67.168C21.3879 67.7799 21.0689 68.3138 20.6457 68.7695C20.2225 69.2253 19.7017 69.5801 19.0832 69.834C18.4647 70.0814 17.7583 70.2051 16.9641 70.2051C16.1633 70.2051 15.4504 70.0716 14.8254 69.8047C14.2069 69.5312 13.6828 69.1504 13.2531 68.6621C12.83 68.1673 12.5077 67.5911 12.2863 66.9336C12.0715 66.2695 11.9641 65.5469 11.9641 64.7656V64.5508C11.9641 64.4401 12.0129 64.3327 12.1105 64.2285C12.2147 64.1178 12.3352 63.9941 12.4719 63.8574C12.6151 63.7207 12.7421 63.5482 12.8527 63.3398C13.2434 62.6172 13.6698 62.0117 14.132 61.5234C14.5943 61.0286 15.0988 60.6576 15.6457 60.4102C16.1991 60.1562 16.8111 60.0293 17.4816 60.0293ZM16.9445 62.2266C16.4172 62.2266 15.994 62.3535 15.675 62.6074C15.356 62.8548 15.1249 63.1868 14.9816 63.6035C14.8449 64.0137 14.7766 64.4629 14.7766 64.9512V65.1562C14.7766 65.5534 14.8156 65.9245 14.8938 66.2695C14.9719 66.6081 15.0956 66.9108 15.2648 67.1777C15.4341 67.4382 15.6587 67.6432 15.9387 67.793C16.2186 67.9362 16.5604 68.0078 16.9641 68.0078C17.3547 68.0078 17.6867 67.9362 17.9602 67.793C18.2401 67.6432 18.4647 67.4382 18.634 67.1777C18.8033 66.9108 18.927 66.6081 19.0051 66.2695C19.0832 65.9245 19.1223 65.5534 19.1223 65.1562V64.9512C19.1223 64.5801 19.0832 64.2318 19.0051 63.9062C18.927 63.5742 18.8033 63.2845 18.634 63.0371C18.4647 62.7832 18.2401 62.5846 17.9602 62.4414C17.6802 62.2982 17.3417 62.2266 16.9445 62.2266ZM26.2805 61.4648V74.0625H23.468V59.4336H26.0754L26.2805 61.4648ZM32.9699 64.5996V64.8047C32.9699 65.5729 32.8788 66.2858 32.6965 66.9434C32.5207 67.6009 32.2603 68.1738 31.9152 68.6621C31.5702 69.1439 31.1405 69.5215 30.6262 69.7949C30.1184 70.0618 29.5324 70.1953 28.8684 70.1953C28.2238 70.1953 27.6639 70.0651 27.1887 69.8047C26.7134 69.5443 26.313 69.1797 25.9875 68.7109C25.6685 68.2357 25.4113 67.6855 25.216 67.0605C25.0207 66.4355 24.871 65.765 24.7668 65.0488V64.5117C24.871 63.7435 25.0207 63.0404 25.216 62.4023C25.4113 61.7578 25.6685 61.2012 25.9875 60.7324C26.313 60.2572 26.7102 59.8893 27.1789 59.6289C27.6542 59.3685 28.2108 59.2383 28.8488 59.2383C29.5194 59.2383 30.1086 59.3652 30.6164 59.6191C31.1307 59.873 31.5604 60.2376 31.9055 60.7129C32.257 61.1882 32.5207 61.7546 32.6965 62.4121C32.8788 63.0697 32.9699 63.7988 32.9699 64.5996ZM30.1477 64.8047V64.5996C30.1477 64.1504 30.1086 63.737 30.0305 63.3594C29.9589 62.9753 29.8417 62.64 29.6789 62.3535C29.5227 62.0671 29.3143 61.8457 29.0539 61.6895C28.8 61.5267 28.4908 61.4453 28.1262 61.4453C27.7421 61.4453 27.4133 61.5072 27.1398 61.6309C26.8729 61.7546 26.6548 61.9336 26.4855 62.168C26.3163 62.4023 26.1893 62.6823 26.1047 63.0078C26.0201 63.3333 25.968 63.7012 25.9484 64.1113V65.4688C25.981 65.9505 26.0721 66.3835 26.2219 66.7676C26.3716 67.1452 26.6027 67.4447 26.9152 67.666C27.2277 67.8874 27.6379 67.998 28.1457 67.998C28.5168 67.998 28.8293 67.9167 29.0832 67.7539C29.3371 67.5846 29.5422 67.3535 29.6984 67.0605C29.8612 66.7676 29.9751 66.429 30.0402 66.0449C30.1119 65.6608 30.1477 65.2474 30.1477 64.8047ZM40.4211 67.6172V62.9102C40.4211 62.5716 40.3658 62.2819 40.2551 62.041C40.1444 61.7936 39.9719 61.6016 39.7375 61.4648C39.5096 61.3281 39.2134 61.2598 38.8488 61.2598C38.5363 61.2598 38.2661 61.3151 38.0383 61.4258C37.8104 61.5299 37.6346 61.6829 37.5109 61.8848C37.3872 62.0801 37.3254 62.3112 37.3254 62.5781H34.5129C34.5129 62.1289 34.6171 61.7025 34.8254 61.2988C35.0337 60.8952 35.3365 60.5404 35.7336 60.2344C36.1307 59.9219 36.6027 59.6777 37.1496 59.502C37.703 59.3262 38.3215 59.2383 39.0051 59.2383C39.8254 59.2383 40.5546 59.375 41.1926 59.6484C41.8306 59.9219 42.3319 60.332 42.6965 60.8789C43.0676 61.4258 43.2531 62.1094 43.2531 62.9297V67.4512C43.2531 68.0306 43.2889 68.5059 43.3605 68.877C43.4322 69.2415 43.5363 69.5605 43.673 69.834V70H40.8313C40.6945 69.7135 40.5904 69.3555 40.5188 68.9258C40.4536 68.4896 40.4211 68.0534 40.4211 67.6172ZM40.7922 63.5645L40.8117 65.1562H39.2395C38.8684 65.1562 38.5461 65.1986 38.2727 65.2832C37.9992 65.3678 37.7746 65.4883 37.5988 65.6445C37.423 65.7943 37.2928 65.9701 37.2082 66.1719C37.1301 66.3737 37.091 66.5951 37.091 66.8359C37.091 67.0768 37.1464 67.2949 37.257 67.4902C37.3677 67.679 37.5272 67.8288 37.7355 67.9395C37.9439 68.0436 38.188 68.0957 38.468 68.0957C38.8911 68.0957 39.259 68.0111 39.5715 67.8418C39.884 67.6725 40.1249 67.4642 40.2941 67.2168C40.4699 66.9694 40.5611 66.735 40.5676 66.5137L41.3098 67.7051C41.2056 67.972 41.0624 68.2487 40.8801 68.5352C40.7043 68.8216 40.4797 69.0918 40.2063 69.3457C39.9328 69.5931 39.604 69.7982 39.2199 69.9609C38.8358 70.1172 38.3801 70.1953 37.8527 70.1953C37.1822 70.1953 36.5734 70.0618 36.0266 69.7949C35.4862 69.5215 35.0565 69.1471 34.7375 68.6719C34.425 68.1901 34.2688 67.6432 34.2688 67.0312C34.2688 66.4779 34.3729 65.9863 34.5813 65.5566C34.7896 65.127 35.0956 64.7656 35.4992 64.4727C35.9094 64.1732 36.4204 63.9486 37.0324 63.7988C37.6444 63.6426 38.354 63.5645 39.1613 63.5645H40.7922ZM50.1281 64.9609H48.0383V63.7012H49.5324C49.884 63.7012 50.1639 63.6523 50.3723 63.5547C50.5871 63.457 50.7401 63.3203 50.8313 63.1445C50.9289 62.9622 50.9777 62.7572 50.9777 62.5293C50.9777 62.3275 50.9354 62.1354 50.8508 61.9531C50.7727 61.7643 50.6294 61.6113 50.4211 61.4941C50.2193 61.3704 49.9328 61.3086 49.5617 61.3086C49.2557 61.3086 48.9823 61.3542 48.7414 61.4453C48.507 61.5365 48.3215 61.6699 48.1848 61.8457C48.0546 62.015 47.9895 62.2201 47.9895 62.4609H45.1672C45.1672 61.7904 45.3592 61.2174 45.7434 60.7422C46.1275 60.2604 46.6418 59.8926 47.2863 59.6387C47.9309 59.3783 48.6372 59.248 49.4055 59.248C50.076 59.248 50.6815 59.3164 51.2219 59.4531C51.7622 59.5833 52.2245 59.7786 52.6086 60.0391C52.9927 60.2995 53.2857 60.6217 53.4875 61.0059C53.6958 61.3835 53.8 61.8229 53.8 62.3242C53.8 62.6823 53.7154 63.0208 53.5461 63.3398C53.3768 63.6589 53.1327 63.9421 52.8137 64.1895C52.4947 64.4303 52.1073 64.6191 51.6516 64.7559C51.2023 64.8926 50.6945 64.9609 50.1281 64.9609ZM48.0383 64.2578H50.1281C50.7596 64.2578 51.313 64.3197 51.7883 64.4434C52.2701 64.5605 52.6737 64.7363 52.9992 64.9707C53.3247 65.2051 53.5689 65.4948 53.7316 65.8398C53.9009 66.1784 53.9855 66.569 53.9855 67.0117C53.9855 67.513 53.8749 67.9622 53.6535 68.3594C53.4322 68.75 53.1164 69.082 52.7063 69.3555C52.2961 69.6289 51.8111 69.8372 51.2512 69.9805C50.6913 70.1237 50.076 70.1953 49.4055 70.1953C48.6893 70.1953 47.9927 70.0781 47.3156 69.8438C46.6385 69.6094 46.0819 69.248 45.6457 68.7598C45.216 68.2715 45.0012 67.6432 45.0012 66.875H47.8234C47.8234 67.0964 47.8885 67.3047 48.0188 67.5C48.149 67.6953 48.3443 67.8516 48.6047 67.9688C48.8651 68.0794 49.1874 68.1348 49.5715 68.1348C49.9556 68.1348 50.2648 68.0729 50.4992 67.9492C50.7336 67.8255 50.9029 67.6628 51.007 67.4609C51.1177 67.2526 51.173 67.0378 51.173 66.8164C51.173 66.5039 51.1112 66.25 50.9875 66.0547C50.8703 65.8594 50.688 65.7161 50.4406 65.625C50.1997 65.5339 49.897 65.4883 49.5324 65.4883H48.0383V64.2578ZM57.6574 62.5684H60.7238C61.6874 62.5684 62.5077 62.7279 63.1848 63.0469C63.8684 63.3594 64.3892 63.7956 64.7473 64.3555C65.1119 64.9154 65.2941 65.5632 65.2941 66.2988C65.2941 66.8327 65.19 67.3275 64.9816 67.7832C64.7798 68.2324 64.4836 68.623 64.093 68.9551C63.7023 69.2871 63.2238 69.5443 62.6574 69.7266C62.091 69.9089 61.4465 70 60.7238 70H55.8996V59.4336H58.7219V67.8125H60.7238C61.147 67.8125 61.4855 67.7441 61.7395 67.6074C61.9999 67.4642 62.1887 67.2786 62.3059 67.0508C62.4296 66.8229 62.4914 66.5755 62.4914 66.3086C62.4914 66.0286 62.4296 65.7747 62.3059 65.5469C62.1887 65.3125 61.9999 65.1237 61.7395 64.9805C61.4855 64.8372 61.147 64.7656 60.7238 64.7656H57.6574V62.5684ZM69.8059 59.4336V70H66.9934V59.4336H69.8059ZM80.0598 66.0742L83.6047 59.4336H86.4172V70H83.6047V63.3496L80.0598 70H77.2473V59.4336H80.0598V66.0742ZM93.2922 64.9609H91.2023V63.7012H92.6965C93.048 63.7012 93.328 63.6523 93.5363 63.5547C93.7512 63.457 93.9042 63.3203 93.9953 63.1445C94.093 62.9622 94.1418 62.7572 94.1418 62.5293C94.1418 62.3275 94.0995 62.1354 94.0148 61.9531C93.9367 61.7643 93.7935 61.6113 93.5852 61.4941C93.3833 61.3704 93.0969 61.3086 92.7258 61.3086C92.4198 61.3086 92.1464 61.3542 91.9055 61.4453C91.6711 61.5365 91.4855 61.6699 91.3488 61.8457C91.2186 62.015 91.1535 62.2201 91.1535 62.4609H88.3313C88.3313 61.7904 88.5233 61.2174 88.9074 60.7422C89.2915 60.2604 89.8059 59.8926 90.4504 59.6387C91.0949 59.3783 91.8013 59.248 92.5695 59.248C93.2401 59.248 93.8456 59.3164 94.3859 59.4531C94.9263 59.5833 95.3885 59.7786 95.7727 60.0391C96.1568 60.2995 96.4497 60.6217 96.6516 61.0059C96.8599 61.3835 96.9641 61.8229 96.9641 62.3242C96.9641 62.6823 96.8794 63.0208 96.7102 63.3398C96.5409 63.6589 96.2967 63.9421 95.9777 64.1895C95.6587 64.4303 95.2714 64.6191 94.8156 64.7559C94.3664 64.8926 93.8586 64.9609 93.2922 64.9609ZM91.2023 64.2578H93.2922C93.9237 64.2578 94.4771 64.3197 94.9523 64.4434C95.4341 64.5605 95.8378 64.7363 96.1633 64.9707C96.4888 65.2051 96.7329 65.4948 96.8957 65.8398C97.065 66.1784 97.1496 66.569 97.1496 67.0117C97.1496 67.513 97.0389 67.9622 96.8176 68.3594C96.5962 68.75 96.2805 69.082 95.8703 69.3555C95.4602 69.6289 94.9751 69.8372 94.4152 69.9805C93.8553 70.1237 93.2401 70.1953 92.5695 70.1953C91.8534 70.1953 91.1568 70.0781 90.4797 69.8438C89.8026 69.6094 89.246 69.248 88.8098 68.7598C88.3801 68.2715 88.1652 67.6432 88.1652 66.875H90.9875C90.9875 67.0964 91.0526 67.3047 91.1828 67.5C91.313 67.6953 91.5083 67.8516 91.7688 67.9688C92.0292 68.0794 92.3514 68.1348 92.7355 68.1348C93.1197 68.1348 93.4289 68.0729 93.6633 67.9492C93.8977 67.8255 94.0669 67.6628 94.1711 67.4609C94.2818 67.2526 94.3371 67.0378 94.3371 66.8164C94.3371 66.5039 94.2753 66.25 94.1516 66.0547C94.0344 65.8594 93.8521 65.7161 93.6047 65.625C93.3638 65.5339 93.0611 65.4883 92.6965 65.4883H91.2023V64.2578ZM105.304 66.7676L108.077 59.4336H110.372L106.251 70H104.357L100.255 59.4336H102.55L105.304 66.7676ZM101.876 59.4336V70H99.0637V59.4336H101.876ZM108.8 70V59.4336H111.613V70H108.8ZM118.937 70.1953C118.116 70.1953 117.381 70.0651 116.73 69.8047C116.079 69.5378 115.525 69.1699 115.07 68.7012C114.62 68.2324 114.275 67.6888 114.034 67.0703C113.793 66.4453 113.673 65.7812 113.673 65.0781V64.6875C113.673 63.8867 113.787 63.1543 114.015 62.4902C114.243 61.8262 114.568 61.25 114.991 60.7617C115.421 60.2734 115.942 59.8991 116.554 59.6387C117.166 59.3717 117.856 59.2383 118.624 59.2383C119.373 59.2383 120.037 59.362 120.616 59.6094C121.196 59.8568 121.681 60.2083 122.071 60.6641C122.469 61.1198 122.768 61.6667 122.97 62.3047C123.172 62.9362 123.273 63.6393 123.273 64.4141V65.5859H114.874V63.7109H120.509V63.4961C120.509 63.1055 120.437 62.7572 120.294 62.4512C120.157 62.1387 119.949 61.8913 119.669 61.709C119.389 61.5267 119.031 61.4355 118.595 61.4355C118.224 61.4355 117.905 61.5169 117.638 61.6797C117.371 61.8424 117.153 62.0703 116.984 62.3633C116.821 62.6562 116.697 63.0013 116.613 63.3984C116.534 63.7891 116.495 64.2188 116.495 64.6875V65.0781C116.495 65.5013 116.554 65.8919 116.671 66.25C116.795 66.6081 116.967 66.9173 117.189 67.1777C117.417 67.4382 117.69 67.64 118.009 67.7832C118.335 67.9264 118.702 67.998 119.113 67.998C119.62 67.998 120.092 67.9004 120.529 67.7051C120.971 67.5033 121.352 67.2005 121.671 66.7969L123.038 68.2812C122.817 68.6003 122.514 68.9062 122.13 69.1992C121.752 69.4922 121.297 69.7331 120.763 69.9219C120.229 70.1042 119.62 70.1953 118.937 70.1953ZM132.111 63.7012V65.8887H126.739V63.7012H132.111ZM127.677 59.4336V70H124.864V59.4336H127.677ZM134.015 59.4336V70H131.193V59.4336H134.015ZM145.109 59.4336V70H142.286V59.4336H145.109ZM143.78 63.9551V66.1523C143.566 66.263 143.289 66.3672 142.95 66.4648C142.612 66.5625 142.254 66.6406 141.876 66.6992C141.505 66.7513 141.16 66.7773 140.841 66.7773C139.825 66.7773 138.953 66.6374 138.224 66.3574C137.501 66.0775 136.945 65.638 136.554 65.0391C136.163 64.4401 135.968 63.6719 135.968 62.7344V59.4238H138.78V62.7344C138.78 63.2096 138.852 63.584 138.995 63.8574C139.139 64.1243 139.36 64.3132 139.659 64.4238C139.965 64.528 140.359 64.5801 140.841 64.5801C141.18 64.5801 141.508 64.554 141.827 64.502C142.146 64.4499 142.465 64.3783 142.784 64.2871C143.103 64.196 143.435 64.0853 143.78 63.9551ZM150.079 66.0742L153.624 59.4336H156.437V70H153.624V63.3496L150.079 70H147.267V59.4336H150.079V66.0742ZM163.868 65.5859H160.558L160.538 63.7402H163.273C163.637 63.7402 163.933 63.7044 164.161 63.6328C164.389 63.5547 164.555 63.4408 164.659 63.291C164.77 63.1348 164.825 62.946 164.825 62.7246C164.825 62.5293 164.79 62.3633 164.718 62.2266C164.653 62.0833 164.552 61.9661 164.415 61.875C164.279 61.7839 164.106 61.7188 163.898 61.6797C163.696 61.6341 163.458 61.6113 163.185 61.6113H161.603V70H158.79V59.4336H163.185C163.875 59.4336 164.493 59.4954 165.04 59.6191C165.587 59.7363 166.053 59.9154 166.437 60.1562C166.827 60.3971 167.124 60.7031 167.325 61.0742C167.534 61.4388 167.638 61.8717 167.638 62.373C167.638 62.6986 167.563 63.0046 167.413 63.291C167.27 63.5775 167.055 63.8314 166.769 64.0527C166.482 64.2741 166.127 64.4564 165.704 64.5996C165.288 64.7363 164.806 64.821 164.259 64.8535L163.868 65.5859ZM163.868 70H159.864L160.831 67.8223H163.868C164.213 67.8223 164.497 67.7799 164.718 67.6953C164.939 67.6107 165.102 67.487 165.206 67.3242C165.317 67.1549 165.372 66.9531 165.372 66.7188C165.372 66.4909 165.323 66.2923 165.226 66.123C165.128 65.9538 164.969 65.8236 164.747 65.7324C164.532 65.6348 164.239 65.5859 163.868 65.5859H161.241L161.261 63.7402H164.249L164.933 64.4824C165.675 64.528 166.287 64.668 166.769 64.9023C167.251 65.1367 167.605 65.4362 167.833 65.8008C168.068 66.1589 168.185 66.5527 168.185 66.9824C168.185 67.4837 168.09 67.9232 167.902 68.3008C167.713 68.6784 167.433 68.9941 167.062 69.248C166.697 69.4954 166.248 69.6842 165.714 69.8145C165.18 69.9382 164.565 70 163.868 70ZM169.464 64.8242V64.6191C169.464 63.8444 169.575 63.1315 169.796 62.4805C170.017 61.8229 170.34 61.2533 170.763 60.7715C171.186 60.2897 171.707 59.9154 172.325 59.6484C172.944 59.375 173.654 59.2383 174.454 59.2383C175.255 59.2383 175.968 59.375 176.593 59.6484C177.218 59.9154 177.742 60.2897 178.165 60.7715C178.595 61.2533 178.92 61.8229 179.142 62.4805C179.363 63.1315 179.474 63.8444 179.474 64.6191V64.8242C179.474 65.5924 179.363 66.3053 179.142 66.9629C178.92 67.6139 178.595 68.1836 178.165 68.6719C177.742 69.1536 177.221 69.528 176.603 69.7949C175.984 70.0618 175.275 70.1953 174.474 70.1953C173.673 70.1953 172.96 70.0618 172.335 69.7949C171.717 69.528 171.193 69.1536 170.763 68.6719C170.34 68.1836 170.017 67.6139 169.796 66.9629C169.575 66.3053 169.464 65.5924 169.464 64.8242ZM172.277 64.6191V64.8242C172.277 65.2669 172.316 65.6803 172.394 66.0645C172.472 66.4486 172.596 66.7871 172.765 67.0801C172.941 67.3665 173.168 67.5911 173.448 67.7539C173.728 67.9167 174.07 67.998 174.474 67.998C174.864 67.998 175.2 67.9167 175.48 67.7539C175.76 67.5911 175.984 67.3665 176.154 67.0801C176.323 66.7871 176.446 66.4486 176.525 66.0645C176.609 65.6803 176.652 65.2669 176.652 64.8242V64.6191C176.652 64.1895 176.609 63.7858 176.525 63.4082C176.446 63.0241 176.32 62.6855 176.144 62.3926C175.974 62.0931 175.75 61.8587 175.47 61.6895C175.19 61.5202 174.851 61.4355 174.454 61.4355C174.057 61.4355 173.719 61.5202 173.439 61.6895C173.165 61.8587 172.941 62.0931 172.765 62.3926C172.596 62.6855 172.472 63.0241 172.394 63.4082C172.316 63.7858 172.277 64.1895 172.277 64.6191ZM188.39 59.4336V61.6406H183.995V70H181.183V59.4336H188.39ZM188.956 64.8242V64.6191C188.956 63.8444 189.067 63.1315 189.288 62.4805C189.51 61.8229 189.832 61.2533 190.255 60.7715C190.678 60.2897 191.199 59.9154 191.818 59.6484C192.436 59.375 193.146 59.2383 193.946 59.2383C194.747 59.2383 195.46 59.375 196.085 59.6484C196.71 59.9154 197.234 60.2897 197.657 60.7715C198.087 61.2533 198.413 61.8229 198.634 62.4805C198.855 63.1315 198.966 63.8444 198.966 64.6191V64.8242C198.966 65.5924 198.855 66.3053 198.634 66.9629C198.413 67.6139 198.087 68.1836 197.657 68.6719C197.234 69.1536 196.713 69.528 196.095 69.7949C195.476 70.0618 194.767 70.1953 193.966 70.1953C193.165 70.1953 192.452 70.0618 191.827 69.7949C191.209 69.528 190.685 69.1536 190.255 68.6719C189.832 68.1836 189.51 67.6139 189.288 66.9629C189.067 66.3053 188.956 65.5924 188.956 64.8242ZM191.769 64.6191V64.8242C191.769 65.2669 191.808 65.6803 191.886 66.0645C191.964 66.4486 192.088 66.7871 192.257 67.0801C192.433 67.3665 192.661 67.5911 192.941 67.7539C193.221 67.9167 193.562 67.998 193.966 67.998C194.357 67.998 194.692 67.9167 194.972 67.7539C195.252 67.5911 195.476 67.3665 195.646 67.0801C195.815 66.7871 195.939 66.4486 196.017 66.0645C196.101 65.6803 196.144 65.2669 196.144 64.8242V64.6191C196.144 64.1895 196.101 63.7858 196.017 63.4082C195.939 63.0241 195.812 62.6855 195.636 62.3926C195.467 62.0931 195.242 61.8587 194.962 61.6895C194.682 61.5202 194.344 61.4355 193.946 61.4355C193.549 61.4355 193.211 61.5202 192.931 61.6895C192.657 61.8587 192.433 62.0931 192.257 62.3926C192.088 62.6855 191.964 63.0241 191.886 63.4082C191.808 63.7858 191.769 64.1895 191.769 64.6191ZM212.101 66.7676L214.874 59.4336H217.169L213.048 70H211.154L207.052 59.4336H209.347L212.101 66.7676ZM208.673 59.4336V70H205.861V59.4336H208.673ZM215.597 70V59.4336H218.409V70H215.597ZM223.673 66.0742L227.218 59.4336H230.03V70H227.218V63.3496L223.673 70H220.861V59.4336H223.673V66.0742ZM235.011 61.4648V74.0625H232.198V59.4336H234.806L235.011 61.4648ZM241.7 64.5996V64.8047C241.7 65.5729 241.609 66.2858 241.427 66.9434C241.251 67.6009 240.991 68.1738 240.646 68.6621C240.301 69.1439 239.871 69.5215 239.357 69.7949C238.849 70.0618 238.263 70.1953 237.599 70.1953C236.954 70.1953 236.394 70.0651 235.919 69.8047C235.444 69.5443 235.043 69.1797 234.718 68.7109C234.399 68.2357 234.142 67.6855 233.946 67.0605C233.751 66.4355 233.601 65.765 233.497 65.0488V64.5117C233.601 63.7435 233.751 63.0404 233.946 62.4023C234.142 61.7578 234.399 61.2012 234.718 60.7324C235.043 60.2572 235.441 59.8893 235.909 59.6289C236.385 59.3685 236.941 59.2383 237.579 59.2383C238.25 59.2383 238.839 59.3652 239.347 59.6191C239.861 59.873 240.291 60.2376 240.636 60.7129C240.987 61.1882 241.251 61.7546 241.427 62.4121C241.609 63.0697 241.7 63.7988 241.7 64.5996ZM238.878 64.8047V64.5996C238.878 64.1504 238.839 63.737 238.761 63.3594C238.689 62.9753 238.572 62.64 238.409 62.3535C238.253 62.0671 238.045 61.8457 237.784 61.6895C237.53 61.5267 237.221 61.4453 236.857 61.4453C236.473 61.4453 236.144 61.5072 235.87 61.6309C235.603 61.7546 235.385 61.9336 235.216 62.168C235.047 62.4023 234.92 62.6823 234.835 63.0078C234.751 63.3333 234.698 63.7012 234.679 64.1113V65.4688C234.711 65.9505 234.803 66.3835 234.952 66.7676C235.102 67.1452 235.333 67.4447 235.646 67.666C235.958 67.8874 236.368 67.998 236.876 67.998C237.247 67.998 237.56 67.9167 237.814 67.7539C238.068 67.5846 238.273 67.3535 238.429 67.0605C238.592 66.7676 238.706 66.429 238.771 66.0449C238.842 65.6608 238.878 65.2474 238.878 64.8047ZM249.152 67.6172V62.9102C249.152 62.5716 249.096 62.2819 248.986 62.041C248.875 61.7936 248.702 61.6016 248.468 61.4648C248.24 61.3281 247.944 61.2598 247.579 61.2598C247.267 61.2598 246.997 61.3151 246.769 61.4258C246.541 61.5299 246.365 61.6829 246.241 61.8848C246.118 62.0801 246.056 62.3112 246.056 62.5781H243.243C243.243 62.1289 243.348 61.7025 243.556 61.2988C243.764 60.8952 244.067 60.5404 244.464 60.2344C244.861 59.9219 245.333 59.6777 245.88 59.502C246.433 59.3262 247.052 59.2383 247.736 59.2383C248.556 59.2383 249.285 59.375 249.923 59.6484C250.561 59.9219 251.062 60.332 251.427 60.8789C251.798 61.4258 251.984 62.1094 251.984 62.9297V67.4512C251.984 68.0306 252.019 68.5059 252.091 68.877C252.163 69.2415 252.267 69.5605 252.404 69.834V70H249.562C249.425 69.7135 249.321 69.3555 249.249 68.9258C249.184 68.4896 249.152 68.0534 249.152 67.6172ZM249.523 63.5645L249.542 65.1562H247.97C247.599 65.1562 247.277 65.1986 247.003 65.2832C246.73 65.3678 246.505 65.4883 246.329 65.6445C246.154 65.7943 246.023 65.9701 245.939 66.1719C245.861 66.3737 245.821 66.5951 245.821 66.8359C245.821 67.0768 245.877 67.2949 245.987 67.4902C246.098 67.679 246.258 67.8288 246.466 67.9395C246.674 68.0436 246.918 68.0957 247.198 68.0957C247.622 68.0957 247.989 68.0111 248.302 67.8418C248.614 67.6725 248.855 67.4642 249.025 67.2168C249.2 66.9694 249.292 66.735 249.298 66.5137L250.04 67.7051C249.936 67.972 249.793 68.2487 249.611 68.5352C249.435 68.8216 249.21 69.0918 248.937 69.3457C248.663 69.5931 248.334 69.7982 247.95 69.9609C247.566 70.1172 247.111 70.1953 246.583 70.1953C245.913 70.1953 245.304 70.0618 244.757 69.7949C244.217 69.5215 243.787 69.1471 243.468 68.6719C243.155 68.1901 242.999 67.6432 242.999 67.0312C242.999 66.4779 243.103 65.9863 243.312 65.5566C243.52 65.127 243.826 64.7656 244.23 64.4727C244.64 64.1732 245.151 63.9486 245.763 63.7988C246.375 63.6426 247.084 63.5645 247.892 63.5645H249.523Z" fill="white"/>
</svg>
